<svg width="20" height="21" viewBox="0 0 20 21" fill="none" xmlns="http://www.w3.org/2000/svg">
<path d="M15.8333 3.55591H4.16666C3.50362 3.55591 2.86773 3.8193 2.39889 4.28814C1.93005 4.75698 1.66666 5.39287 1.66666 6.05591V14.3892C1.66666 15.0523 1.93005 15.6882 2.39889 16.157C2.86773 16.6258 3.50362 16.8892 4.16666 16.8892H15.8333C16.4964 16.8892 17.1322 16.6258 17.6011 16.157C18.0699 15.6882 18.3333 15.0523 18.3333 14.3892V6.05591C18.3333 5.39287 18.0699 4.75698 17.6011 4.28814C17.1322 3.8193 16.4964 3.55591 15.8333 3.55591ZM15.8333 5.22257L10.4167 8.94758C10.29 9.02072 10.1463 9.05922 9.99999 9.05922C9.85371 9.05922 9.71001 9.02072 9.58332 8.94758L4.16666 5.22257H15.8333Z" fill="white"/>
</svg>
